<svg width="196" height="136" viewBox="0 0 196 136" fill="none" xmlns="http://www.w3.org/2000/svg">
<path d="M11.628 18H9.576L3.402 8.658V18H1.35V5.472H3.402L9.576 14.796V5.472H11.628V18ZM18.6247 18.162C17.6887 18.162 16.8427 17.952 16.0867 17.532C15.3307 17.1 14.7367 16.5 14.3047 15.732C13.8727 14.952 13.6567 14.052 13.6567 13.032C13.6567 12.024 13.8787 11.13 14.3227 10.35C14.7667 9.57 15.3727 8.97 16.1407 8.55C16.9087 8.13 17.7667 7.92 18.7147 7.92C19.6627 7.92 20.5207 8.13 21.2887 8.55C22.0567 8.97 22.6627 9.57 23.1067 10.35C23.5507 11.13 23.7727 12.024 23.7727 13.032C23.7727 14.04 23.5447 14.934 23.0887 15.714C22.6327 16.494 22.0087 17.1 21.2167 17.532C20.4367 17.952 19.5727 18.162 18.6247 18.162ZM18.6247 16.38C19.1527 16.38 19.6447 16.254 20.1007 16.002C20.5687 15.75 20.9467 15.372 21.2347 14.868C21.5227 14.364 21.6667 13.752 21.6667 13.032C21.6667 12.312 21.5287 11.706 21.2527 11.214C20.9767 10.71 20.6107 10.332 20.1547 10.08C19.6987 9.828 19.2067 9.702 18.6787 9.702C18.1507 9.702 17.6587 9.828 17.2027 10.08C16.7587 10.332 16.4047 10.71 16.1407 11.214C15.8767 11.706 15.7447 12.312 15.7447 13.032C15.7447 14.1 16.0147 14.928 16.5547 15.516C17.1067 16.092 17.7967 16.38 18.6247 16.38ZM26.6292 18.126C26.2572 18.126 25.9452 18 25.6932 17.748C25.4412 17.496 25.3152 17.184 25.3152 16.812C25.3152 16.44 25.4412 16.128 25.6932 15.876C25.9452 15.624 26.2572 15.498 26.6292 15.498C26.9892 15.498 27.2952 15.624 27.5472 15.876C27.7992 16.128 27.9252 16.44 27.9252 16.812C27.9252 17.184 27.7992 17.496 27.5472 17.748C27.2952 18 26.9892 18.126 26.6292 18.126ZM39.1208 18.162C38.1848 18.162 37.3388 17.952 36.5828 17.532C35.8268 17.1 35.2328 16.5 34.8008 15.732C34.3688 14.952 34.1528 14.052 34.1528 13.032C34.1528 12.024 34.3748 11.13 34.8188 10.35C35.2628 9.57 35.8688 8.97 36.6368 8.55C37.4048 8.13 38.2628 7.92 39.2108 7.92C40.1588 7.92 41.0168 8.13 41.7848 8.55C42.5528 8.97 43.1588 9.57 43.6028 10.35C44.0468 11.13 44.2688 12.024 44.2688 13.032C44.2688 14.04 44.0408 14.934 43.5848 15.714C43.1288 16.494 42.5048 17.1 41.7128 17.532C40.9328 17.952 40.0688 18.162 39.1208 18.162ZM39.1208 16.38C39.6488 16.38 40.1408 16.254 40.5968 16.002C41.0648 15.75 41.4428 15.372 41.7308 14.868C42.0188 14.364 42.1628 13.752 42.1628 13.032C42.1628 12.312 42.0248 11.706 41.7488 11.214C41.4728 10.71 41.1068 10.332 40.6508 10.08C40.1948 9.828 39.7028 9.702 39.1748 9.702C38.6468 9.702 38.1548 9.828 37.6988 10.08C37.2548 10.332 36.9008 10.71 36.6368 11.214C36.3728 11.706 36.2408 12.312 36.2408 13.032C36.2408 14.1 36.5108 14.928 37.0508 15.516C37.6028 16.092 38.2928 16.38 39.1208 16.38ZM50.4553 9.756H48.6193V18H46.5493V9.756H45.3793V8.082H46.5493V7.38C46.5493 6.24 46.8493 5.412 47.4493 4.896C48.0613 4.368 49.0153 4.104 50.3113 4.104V5.814C49.6873 5.814 49.2493 5.934 48.9973 6.174C48.7453 6.402 48.6193 6.804 48.6193 7.38V8.082H50.4553V9.756ZM58.9836 5.49V13.464C58.9836 14.412 59.2296 15.126 59.7216 15.606C60.2256 16.086 60.9216 16.326 61.8096 16.326C62.7096 16.326 63.4056 16.086 63.8976 15.606C64.4016 15.126 64.6536 14.412 64.6536 13.464V5.49H66.7056V13.428C66.7056 14.448 66.4836 15.312 66.0396 16.02C65.5956 16.728 65.0016 17.256 64.2576 17.604C63.5136 17.952 62.6916 18.126 61.7916 18.126C60.8916 18.126 60.0696 17.952 59.3256 17.604C58.5936 17.256 58.0116 16.728 57.5796 16.02C57.1476 15.312 56.9316 14.448 56.9316 13.428V5.49H58.9836ZM74.3813 7.92C75.1613 7.92 75.8573 8.082 76.4693 8.406C77.0933 8.73 77.5793 9.21 77.9273 9.846C78.2753 10.482 78.4493 11.25 78.4493 12.15V18H76.4153V12.456C76.4153 11.568 76.1933 10.89 75.7493 10.422C75.3053 9.942 74.6993 9.702 73.9313 9.702C73.1633 9.702 72.5513 9.942 72.0953 10.422C71.6513 10.89 71.4293 11.568 71.4293 12.456V18H69.3773V8.082H71.4293V9.216C71.7653 8.808 72.1913 8.49 72.7073 8.262C73.2353 8.034 73.7933 7.92 74.3813 7.92ZM82.1108 6.768C81.7388 6.768 81.4268 6.642 81.1748 6.39C80.9228 6.138 80.7968 5.826 80.7968 5.454C80.7968 5.082 80.9228 4.77 81.1748 4.518C81.4268 4.266 81.7388 4.14 82.1108 4.14C82.4708 4.14 82.7768 4.266 83.0288 4.518C83.2808 4.77 83.4068 5.082 83.4068 5.454C83.4068 5.826 83.2808 6.138 83.0288 6.39C82.7768 6.642 82.4708 6.768 82.1108 6.768ZM83.1188 8.082V18H81.0668V8.082H83.1188ZM88.2069 9.756V15.246C88.2069 15.618 88.2909 15.888 88.4589 16.056C88.6389 16.212 88.9389 16.29 89.3589 16.29H90.6189V18H88.9989C88.0749 18 87.3669 17.784 86.8749 17.352C86.3829 16.92 86.1369 16.218 86.1369 15.246V9.756H84.9669V8.082H86.1369V5.616H88.2069V8.082H90.6189V9.756H88.2069ZM96.1102 18.162C95.3302 18.162 94.6282 18.024 94.0042 17.748C93.3922 17.46 92.9062 17.076 92.5462 16.596C92.1862 16.104 91.9942 15.558 91.9702 14.958H94.0942C94.1302 15.378 94.3282 15.732 94.6882 16.02C95.0602 16.296 95.5222 16.434 96.0742 16.434C96.6502 16.434 97.0942 16.326 97.4062 16.11C97.7302 15.882 97.8922 15.594 97.8922 15.246C97.8922 14.874 97.7122 14.598 97.3522 14.418C97.0042 14.238 96.4462 14.04 95.6782 13.824C94.9342 13.62 94.3282 13.422 93.8602 13.23C93.3922 13.038 92.9842 12.744 92.6362 12.348C92.3002 11.952 92.1322 11.43 92.1322 10.782C92.1322 10.254 92.2882 9.774 92.6002 9.342C92.9122 8.898 93.3562 8.55 93.9322 8.298C94.5202 8.046 95.1922 7.92 95.9482 7.92C97.0762 7.92 97.9822 8.208 98.6662 8.784C99.3622 9.348 99.7342 10.122 99.7822 11.106H97.7302C97.6942 10.662 97.5142 10.308 97.1902 10.044C96.8662 9.78 96.4282 9.648 95.8762 9.648C95.3362 9.648 94.9222 9.75 94.6342 9.954C94.3462 10.158 94.2022 10.428 94.2022 10.764C94.2022 11.028 94.2982 11.25 94.4902 11.43C94.6822 11.61 94.9162 11.754 95.1922 11.862C95.4682 11.958 95.8762 12.084 96.4162 12.24C97.1362 12.432 97.7242 12.63 98.1802 12.834C98.6482 13.026 99.0502 13.314 99.3862 13.698C99.7222 14.082 99.8962 14.592 99.9082 15.228C99.9082 15.792 99.7522 16.296 99.4402 16.74C99.1282 17.184 98.6842 17.532 98.1082 17.784C97.5442 18.036 96.8782 18.162 96.1102 18.162ZM118.807 7.92C119.587 7.92 120.283 8.082 120.895 8.406C121.519 8.73 122.005 9.21 122.353 9.846C122.713 10.482 122.893 11.25 122.893 12.15V18H120.859V12.456C120.859 11.568 120.637 10.89 120.193 10.422C119.749 9.942 119.143 9.702 118.375 9.702C117.607 9.702 116.995 9.942 116.539 10.422C116.095 10.89 115.873 11.568 115.873 12.456V18H113.839V12.456C113.839 11.568 113.617 10.89 113.173 10.422C112.729 9.942 112.123 9.702 111.355 9.702C110.587 9.702 109.975 9.942 109.519 10.422C109.075 10.89 108.853 11.568 108.853 12.456V18H106.801V8.082H108.853V9.216C109.189 8.808 109.615 8.49 110.131 8.262C110.647 8.034 111.199 7.92 111.787 7.92C112.579 7.92 113.287 8.088 113.911 8.424C114.535 8.76 115.015 9.246 115.351 9.882C115.651 9.282 116.119 8.808 116.755 8.46C117.391 8.1 118.075 7.92 118.807 7.92ZM124.82 12.996C124.82 12 125.024 11.118 125.432 10.35C125.852 9.582 126.416 8.988 127.124 8.568C127.844 8.136 128.636 7.92 129.5 7.92C130.28 7.92 130.958 8.076 131.534 8.388C132.122 8.688 132.59 9.066 132.938 9.522V8.082H135.008V18H132.938V16.524C132.59 16.992 132.116 17.382 131.516 17.694C130.916 18.006 130.232 18.162 129.464 18.162C128.612 18.162 127.832 17.946 127.124 17.514C126.416 17.07 125.852 16.458 125.432 15.678C125.024 14.886 124.82 13.992 124.82 12.996ZM132.938 13.032C132.938 12.348 132.794 11.754 132.506 11.25C132.23 10.746 131.864 10.362 131.408 10.098C130.952 9.834 130.46 9.702 129.932 9.702C129.404 9.702 128.912 9.834 128.456 10.098C128 10.35 127.628 10.728 127.34 11.232C127.064 11.724 126.926 12.312 126.926 12.996C126.926 13.68 127.064 14.28 127.34 14.796C127.628 15.312 128 15.708 128.456 15.984C128.924 16.248 129.416 16.38 129.932 16.38C130.46 16.38 130.952 16.248 131.408 15.984C131.864 15.72 132.23 15.336 132.506 14.832C132.794 14.316 132.938 13.716 132.938 13.032ZM142.708 7.92C143.488 7.92 144.184 8.082 144.796 8.406C145.42 8.73 145.906 9.21 146.254 9.846C146.602 10.482 146.776 11.25 146.776 12.15V18H144.742V12.456C144.742 11.568 144.52 10.89 144.076 10.422C143.632 9.942 143.026 9.702 142.258 9.702C141.49 9.702 140.878 9.942 140.422 10.422C139.978 10.89 139.756 11.568 139.756 12.456V18H137.704V8.082H139.756V9.216C140.092 8.808 140.518 8.49 141.034 8.262C141.562 8.034 142.12 7.92 142.708 7.92ZM148.709 12.996C148.709 12 148.913 11.118 149.321 10.35C149.741 9.582 150.305 8.988 151.013 8.568C151.733 8.136 152.525 7.92 153.389 7.92C154.169 7.92 154.847 8.076 155.423 8.388C156.011 8.688 156.479 9.066 156.827 9.522V8.082H158.897V18H156.827V16.524C156.479 16.992 156.005 17.382 155.405 17.694C154.805 18.006 154.121 18.162 153.353 18.162C152.501 18.162 151.721 17.946 151.013 17.514C150.305 17.07 149.741 16.458 149.321 15.678C148.913 14.886 148.709 13.992 148.709 12.996ZM156.827 13.032C156.827 12.348 156.683 11.754 156.395 11.25C156.119 10.746 155.753 10.362 155.297 10.098C154.841 9.834 154.349 9.702 153.821 9.702C153.293 9.702 152.801 9.834 152.345 10.098C151.889 10.35 151.517 10.728 151.229 11.232C150.953 11.724 150.815 12.312 150.815 12.996C150.815 13.68 150.953 14.28 151.229 14.796C151.517 15.312 151.889 15.708 152.345 15.984C152.813 16.248 153.305 16.38 153.821 16.38C154.349 16.38 154.841 16.248 155.297 15.984C155.753 15.72 156.119 15.336 156.395 14.832C156.683 14.316 156.827 13.716 156.827 13.032ZM165.588 7.92C166.356 7.92 167.034 8.076 167.622 8.388C168.222 8.688 168.69 9.066 169.026 9.522V8.082H171.096V18.162C171.096 19.074 170.904 19.884 170.52 20.592C170.136 21.312 169.578 21.876 168.846 22.284C168.126 22.692 167.262 22.896 166.254 22.896C164.91 22.896 163.794 22.578 162.906 21.942C162.018 21.318 161.514 20.466 161.394 19.386H163.428C163.584 19.902 163.914 20.316 164.418 20.628C164.934 20.952 165.546 21.114 166.254 21.114C167.082 21.114 167.748 20.862 168.252 20.358C168.768 19.854 169.026 19.122 169.026 18.162V16.506C168.678 16.974 168.204 17.37 167.604 17.694C167.016 18.006 166.344 18.162 165.588 18.162C164.724 18.162 163.932 17.946 163.212 17.514C162.504 17.07 161.94 16.458 161.52 15.678C161.112 14.886 160.908 13.992 160.908 12.996C160.908 12 161.112 11.118 161.52 10.35C161.94 9.582 162.504 8.988 163.212 8.568C163.932 8.136 164.724 7.92 165.588 7.92ZM169.026 13.032C169.026 12.348 168.882 11.754 168.594 11.25C168.318 10.746 167.952 10.362 167.496 10.098C167.04 9.834 166.548 9.702 166.02 9.702C165.492 9.702 165 9.834 164.544 10.098C164.088 10.35 163.716 10.728 163.428 11.232C163.152 11.724 163.014 12.312 163.014 12.996C163.014 13.68 163.152 14.28 163.428 14.796C163.716 15.312 164.088 15.708 164.544 15.984C165.012 16.248 165.504 16.38 166.02 16.38C166.548 16.38 167.04 16.248 167.496 15.984C167.952 15.72 168.318 15.336 168.594 14.832C168.882 14.316 169.026 13.716 169.026 13.032ZM182.881 12.798C182.881 13.17 182.857 13.506 182.809 13.806H175.231C175.291 14.598 175.585 15.234 176.113 15.714C176.641 16.194 177.289 16.434 178.057 16.434C179.161 16.434 179.941 15.972 180.397 15.048H182.611C182.311 15.96 181.765 16.71 180.973 17.298C180.193 17.874 179.221 18.162 178.057 18.162C177.109 18.162 176.257 17.952 175.501 17.532C174.757 17.1 174.169 16.5 173.737 15.732C173.317 14.952 173.107 14.052 173.107 13.032C173.107 12.012 173.311 11.118 173.719 10.35C174.139 9.57 174.721 8.97 175.465 8.55C176.221 8.13 177.085 7.92 178.057 7.92C178.993 7.92 179.827 8.124 180.559 8.532C181.291 8.94 181.861 9.516 182.269 10.26C182.677 10.992 182.881 11.838 182.881 12.798ZM180.739 12.15C180.727 11.394 180.457 10.788 179.929 10.332C179.401 9.876 178.747 9.648 177.967 9.648C177.259 9.648 176.653 9.876 176.149 10.332C175.645 10.776 175.345 11.382 175.249 12.15H180.739ZM184.217 12.996C184.217 12 184.421 11.118 184.829 10.35C185.249 9.582 185.813 8.988 186.521 8.568C187.241 8.136 188.039 7.92 188.915 7.92C189.563 7.92 190.199 8.064 190.823 8.352C191.459 8.628 191.963 9 192.335 9.468V4.68H194.405V18H192.335V16.506C191.999 16.986 191.531 17.382 190.931 17.694C190.343 18.006 189.665 18.162 188.897 18.162C188.033 18.162 187.241 17.946 186.521 17.514C185.813 17.07 185.249 16.458 184.829 15.678C184.421 14.886 184.217 13.992 184.217 12.996ZM192.335 13.032C192.335 12.348 192.191 11.754 191.903 11.25C191.627 10.746 191.261 10.362 190.805 10.098C190.349 9.834 189.857 9.702 189.329 9.702C188.801 9.702 188.309 9.834 187.853 10.098C187.397 10.35 187.025 10.728 186.737 11.232C186.461 11.724 186.323 12.312 186.323 12.996C186.323 13.68 186.461 14.28 186.737 14.796C187.025 15.312 187.397 15.708 187.853 15.984C188.321 16.248 188.813 16.38 189.329 16.38C189.857 16.38 190.349 16.248 190.805 15.984C191.261 15.72 191.627 15.336 191.903 14.832C192.191 14.316 192.335 13.716 192.335 13.032Z" fill="black"/>
<path d="M54.214 127.21C55.366 126.214 56.272 125.398 56.932 124.762C57.604 124.114 58.162 123.442 58.606 122.746C59.05 122.05 59.272 121.354 59.272 120.658C59.272 119.938 59.098 119.374 58.75 118.966C58.414 118.558 57.88 118.354 57.148 118.354C56.44 118.354 55.888 118.582 55.492 119.038C55.108 119.482 54.904 120.082 54.88 120.838H52.9C52.936 119.47 53.344 118.426 54.124 117.706C54.916 116.974 55.918 116.608 57.13 116.608C58.438 116.608 59.458 116.968 60.19 117.688C60.934 118.408 61.306 119.368 61.306 120.568C61.306 121.432 61.084 122.266 60.64 123.07C60.208 123.862 59.686 124.576 59.074 125.212C58.474 125.836 57.706 126.562 56.77 127.39L55.96 128.11H61.666V129.82H52.918V128.326L54.214 127.21ZM65.9887 127.534L63.8107 132.502H62.4787L63.7567 127.534H65.9887ZM67.2416 118.75V116.878H70.9856V130H68.9156V118.75H67.2416ZM76.3606 126.436C76.4806 127.036 76.7386 127.492 77.1346 127.804C77.5306 128.116 78.0646 128.272 78.7366 128.272C79.5886 128.272 80.2126 127.936 80.6086 127.264C81.0046 126.592 81.2026 125.446 81.2026 123.826C80.9146 124.234 80.5066 124.552 79.9786 124.78C79.4626 124.996 78.8986 125.104 78.2866 125.104C77.5066 125.104 76.7986 124.948 76.1626 124.636C75.5266 124.312 75.0226 123.838 74.6506 123.214C74.2906 122.578 74.1106 121.81 74.1106 120.91C74.1106 119.59 74.4946 118.54 75.2626 117.76C76.0426 116.968 77.1106 116.572 78.4666 116.572C80.0986 116.572 81.2566 117.118 81.9406 118.21C82.6366 119.29 82.9846 120.952 82.9846 123.196C82.9846 124.744 82.8526 126.01 82.5886 126.994C82.3366 127.978 81.8926 128.722 81.2566 129.226C80.6206 129.73 79.7386 129.982 78.6106 129.982C77.3266 129.982 76.3366 129.646 75.6406 128.974C74.9446 128.302 74.5546 127.456 74.4706 126.436H76.3606ZM78.6466 123.376C79.3666 123.376 79.9306 123.154 80.3386 122.71C80.7586 122.254 80.9686 121.654 80.9686 120.91C80.9686 120.082 80.7466 119.44 80.3026 118.984C79.8706 118.516 79.2766 118.282 78.5206 118.282C77.7646 118.282 77.1646 118.522 76.7206 119.002C76.2886 119.47 76.0726 120.088 76.0726 120.856C76.0726 121.588 76.2826 122.194 76.7026 122.674C77.1346 123.142 77.7826 123.376 78.6466 123.376ZM86.3644 127.21C87.5164 126.214 88.4224 125.398 89.0824 124.762C89.7544 124.114 90.3124 123.442 90.7564 122.746C91.2004 122.05 91.4224 121.354 91.4224 120.658C91.4224 119.938 91.2484 119.374 90.9004 118.966C90.5644 118.558 90.0304 118.354 89.2984 118.354C88.5904 118.354 88.0384 118.582 87.6424 119.038C87.2584 119.482 87.0544 120.082 87.0304 120.838H85.0504C85.0864 119.47 85.4944 118.426 86.2744 117.706C87.0664 116.974 88.0684 116.608 89.2804 116.608C90.5884 116.608 91.6084 116.968 92.3404 117.688C93.0844 118.408 93.4564 119.368 93.4564 120.568C93.4564 121.432 93.2344 122.266 92.7904 123.07C92.3584 123.862 91.8364 124.576 91.2244 125.212C90.6244 125.836 89.8564 126.562 88.9204 127.39L88.1104 128.11H93.8164V129.82H85.0684V128.326L86.3644 127.21ZM102.599 117.49V125.464C102.599 126.412 102.845 127.126 103.337 127.606C103.841 128.086 104.537 128.326 105.425 128.326C106.325 128.326 107.021 128.086 107.513 127.606C108.017 127.126 108.269 126.412 108.269 125.464V117.49H110.321V125.428C110.321 126.448 110.099 127.312 109.655 128.02C109.211 128.728 108.617 129.256 107.873 129.604C107.129 129.952 106.307 130.126 105.407 130.126C104.507 130.126 103.685 129.952 102.941 129.604C102.209 129.256 101.627 128.728 101.195 128.02C100.763 127.312 100.547 126.448 100.547 125.428V117.49H102.599ZM117.997 119.92C118.777 119.92 119.473 120.082 120.085 120.406C120.709 120.73 121.195 121.21 121.543 121.846C121.891 122.482 122.065 123.25 122.065 124.15V130H120.031V124.456C120.031 123.568 119.809 122.89 119.365 122.422C118.921 121.942 118.315 121.702 117.547 121.702C116.779 121.702 116.167 121.942 115.711 122.422C115.267 122.89 115.045 123.568 115.045 124.456V130H112.993V120.082H115.045V121.216C115.381 120.808 115.807 120.49 116.323 120.262C116.851 120.034 117.409 119.92 117.997 119.92ZM125.726 118.768C125.354 118.768 125.042 118.642 124.79 118.39C124.538 118.138 124.412 117.826 124.412 117.454C124.412 117.082 124.538 116.77 124.79 116.518C125.042 116.266 125.354 116.14 125.726 116.14C126.086 116.14 126.392 116.266 126.644 116.518C126.896 116.77 127.022 117.082 127.022 117.454C127.022 117.826 126.896 118.138 126.644 118.39C126.392 118.642 126.086 118.768 125.726 118.768ZM126.734 120.082V130H124.682V120.082H126.734ZM131.822 121.756V127.246C131.822 127.618 131.906 127.888 132.074 128.056C132.254 128.212 132.554 128.29 132.974 128.29H134.234V130H132.614C131.69 130 130.982 129.784 130.49 129.352C129.998 128.92 129.752 128.218 129.752 127.246V121.756H128.582V120.082H129.752V117.616H131.822V120.082H134.234V121.756H131.822ZM139.725 130.162C138.945 130.162 138.243 130.024 137.619 129.748C137.007 129.46 136.521 129.076 136.161 128.596C135.801 128.104 135.609 127.558 135.585 126.958H137.709C137.745 127.378 137.943 127.732 138.303 128.02C138.675 128.296 139.137 128.434 139.689 128.434C140.265 128.434 140.709 128.326 141.021 128.11C141.345 127.882 141.507 127.594 141.507 127.246C141.507 126.874 141.327 126.598 140.967 126.418C140.619 126.238 140.061 126.04 139.293 125.824C138.549 125.62 137.943 125.422 137.475 125.23C137.007 125.038 136.599 124.744 136.251 124.348C135.915 123.952 135.747 123.43 135.747 122.782C135.747 122.254 135.903 121.774 136.215 121.342C136.527 120.898 136.971 120.55 137.547 120.298C138.135 120.046 138.807 119.92 139.563 119.92C140.691 119.92 141.597 120.208 142.281 120.784C142.977 121.348 143.349 122.122 143.397 123.106H141.345C141.309 122.662 141.129 122.308 140.805 122.044C140.481 121.78 140.043 121.648 139.491 121.648C138.951 121.648 138.537 121.75 138.249 121.954C137.961 122.158 137.817 122.428 137.817 122.764C137.817 123.028 137.913 123.25 138.105 123.43C138.297 123.61 138.531 123.754 138.807 123.862C139.083 123.958 139.491 124.084 140.031 124.24C140.751 124.432 141.339 124.63 141.795 124.834C142.263 125.026 142.665 125.314 143.001 125.698C143.337 126.082 143.511 126.592 143.523 127.228C143.523 127.792 143.367 128.296 143.055 128.74C142.743 129.184 142.299 129.532 141.723 129.784C141.159 130.036 140.493 130.162 139.725 130.162Z" fill="black"/>
<g clip-path="url(#clip0)">
<path d="M122.413 67.9545L100.165 46.4738C99.5169 45.8421 98.4832 45.8421 97.8351 46.4738L75.5878 67.9537C75.2603 68.2698 75.0753 68.7054 75.0753 69.1606C75.0753 70.0871 75.8264 70.8381 76.7528 70.8381H79.7093V94.3225C79.7093 95.249 80.4603 96 81.3868 96H93.129C94.0554 96 94.8064 95.249 94.8064 94.3225V80.9028H103.194V94.3225C103.194 95.249 103.945 96 104.871 96H116.613C117.54 96 118.291 95.249 118.291 94.3225V70.8381H121.247C121.702 70.8381 122.137 70.6534 122.453 70.3264C123.097 69.6603 123.079 68.5984 122.413 67.9545ZM118.291 69.1606C117.364 69.1606 116.613 69.9116 116.613 70.8381V94.3225H104.871V80.9028C104.871 79.9763 104.12 79.2254 103.194 79.2254H94.8064C93.8799 79.2254 93.129 79.9763 93.129 80.9028V94.3225H81.3868V70.8381C81.3868 69.9116 80.6358 69.1606 79.7093 69.1606H76.7528L99.0001 47.6808L121.256 69.1606H118.291Z" fill="#1170AD"/>
</g>
<defs>
<clipPath id="clip0">
<rect width="50" height="50" fill="white" transform="translate(74 46)"/>
</clipPath>
</defs>
</svg>
